HIERARCHY
ROOT hip
{
  OFFSET 0 0 0
  CHANNELS 6 Xposition Yposition Zposition Zrotation Yrotation Xrotation
  JOINT abdomen
  {
    OFFSET 0 20.6881 -0.73152
    CHANNELS 3 Zrotation Xrotation Yrotation
    JOINT chest
    {
      OFFSET 0 11.7043 -0.48768
      CHANNELS 3 Zrotation Xrotation Yrotation
      JOINT neck
      {
        OFFSET 0 22.1894 -2.19456
        CHANNELS 3 Zrotation Xrotation Yrotation
        JOINT head
        {
          OFFSET -0.24384 7.07133 1.2192
          CHANNELS 3 Zrotation Xrotation Yrotation
          JOINT leftEye
          {
            OFFSET 4.14528 8.04674 8.04672
            CHANNELS 3 Zrotation Xrotation Yrotation
            End Site
            {
              OFFSET 1 0 0
            }
          }
          JOINT rightEye
          {
            OFFSET -3.6576 8.04674 8.04672
            CHANNELS 3 Zrotation Xrotation Yrotation
            End Site
            {
              OFFSET 1 0 0
            }
          }
        }
      }
      JOINT rCollar
      {
        OFFSET -2.68224 19.2634 -4.8768
        CHANNELS 3 Zrotation Xrotation Yrotation
        JOINT rShldr
        {
          OFFSET -8.77824 -1.95073 1.46304
          CHANNELS 3 Zrotation Xrotation Yrotation
          JOINT rForeArm
          {
            OFFSET -28.1742 -1.7115 0.48768
            CHANNELS 3 Zrotation Xrotation Yrotation
            JOINT rHand
            {
              OFFSET -22.5879 0.773209 7.07136
              CHANNELS 3 Zrotation Xrotation Yrotation
              JOINT rThumb1
              {
                OFFSET -1.2192 -0.487915 3.41376
                CHANNELS 3 Zrotation Xrotation Yrotation
                JOINT rThumb2
                {
                  OFFSET -3.37035 -0.52449 3.41376
                  CHANNELS 3 Zrotation Xrotation Yrotation
                  End Site
                  {
                    OFFSET -1.78271 -1.18214 1.43049
                  }
                }
              }
              JOINT rIndex1
              {
                OFFSET -7.75947 0.938293 5.60832
                CHANNELS 3 Zrotation Xrotation Yrotation
                JOINT rIndex2
                {
                  OFFSET -2.54057 -0.884171 1.56538
                  CHANNELS 3 Zrotation Xrotation Yrotation
                  End Site
                  {
                    OFFSET -1.62519 -0.234802 1.16502
                  }
                }
              }
              JOINT rMid1
              {
                OFFSET -8.24714 1.18213 3.41376
                CHANNELS 3 Zrotation Xrotation Yrotation
                JOINT rMid2
                {
                  OFFSET -3.10165 -0.590103 1.0647
                  CHANNELS 3 Zrotation Xrotation Yrotation
                  End Site
                  {
                    OFFSET -2.48547 -0.328903 0.83742
                  }
                }
              }
              JOINT rRing1
              {
                OFFSET -8.82822 0.546677 1.51678
                CHANNELS 3 Zrotation Xrotation Yrotation
                JOINT rRing2
                {
                  OFFSET -2.60934 -0.819778 -0.0198488
                  CHANNELS 3 Zrotation Xrotation Yrotation
                  End Site
                  {
                    OFFSET -2.33842 -0.294052 0.168128
                  }
                }
              }
              JOINT rPinky1
              {
                OFFSET -8.27202 -0.0477905 -0.4584
                CHANNELS 3 Zrotation Xrotation Yrotation
                JOINT rPinky2
                {
                  OFFSET -1.82734 -0.647385 -0.700984
                  CHANNELS 3 Zrotation Xrotation Yrotation
                  End Site
                  {
                    OFFSET -1.69225 -0.51767 -0.607171
                  }
                }
              }
            }
          }
        }
      }
      JOINT lCollar
      {
        OFFSET 2.68224 19.2634 -4.8768
        CHANNELS 3 Zrotation Xrotation Yrotation
        JOINT lShldr
        {
          OFFSET 8.77824 -1.95073 1.46304
          CHANNELS 3 Zrotation Xrotation Yrotation
          JOINT lForeArm
          {
            OFFSET 28.1742 -1.7115 0.48768
            CHANNELS 3 Zrotation Xrotation Yrotation
            JOINT lHand
            {
              OFFSET 22.5879 0.773209 7.07136
              CHANNELS 3 Zrotation Xrotation Yrotation
              JOINT lThumb1
              {
                OFFSET 1.2192 -0.487915 3.41376
                CHANNELS 3 Zrotation Xrotation Yrotation
                JOINT lThumb2
                {
                  OFFSET 3.37035 -0.52449 3.41376
                  CHANNELS 3 Zrotation Xrotation Yrotation
                  End Site
                  {
                    OFFSET 1.78271 -1.18214 1.43049
                  }
                }
              }
              JOINT lIndex1
              {
                OFFSET 7.75947 0.938293 5.60832
                CHANNELS 3 Zrotation Xrotation Yrotation
                JOINT lIndex2
                {
                  OFFSET 2.54057 -0.884171 1.56538
                  CHANNELS 3 Zrotation Xrotation Yrotation
                  End Site
                  {
                    OFFSET 1.62519 -0.234802 1.16502
                  }
                }
              }
              JOINT lMid1
              {
                OFFSET 8.24714 1.18213 3.41376
                CHANNELS 3 Zrotation Xrotation Yrotation
                JOINT lMid2
                {
                  OFFSET 3.10165 -0.590103 1.0647
                  CHANNELS 3 Zrotation Xrotation Yrotation
                  End Site
                  {
                    OFFSET 2.48547 -0.328903 0.83742
                  }
                }
              }
              JOINT lRing1
              {
                OFFSET 8.82822 0.546677 1.51678
                CHANNELS 3 Zrotation Xrotation Yrotation
                JOINT lRing2
                {
                  OFFSET 2.60934 -0.819778 -0.0198488
                  CHANNELS 3 Zrotation Xrotation Yrotation
                  End Site
                  {
                    OFFSET 2.33842 -0.294052 0.168128
                  }
                }
              }
              JOINT lPinky1
              {
                OFFSET 8.27202 -0.0477905 -0.4584
                CHANNELS 3 Zrotation Xrotation Yrotation
                JOINT lPinky2
                {
                  OFFSET 1.82734 -0.647385 -0.700984
                  CHANNELS 3 Zrotation Xrotation Yrotation
                  End Site
                  {
                    OFFSET 1.69225 -0.51767 -0.607171
                  }
                }
              }
            }
          }
        }
      }
    }
  }
  JOINT rButtock
  {
    OFFSET -8.77824 4.35084 1.2192
    CHANNELS 3 Zrotation Xrotation Yrotation
    JOINT rThigh
    {
      OFFSET 0 -1.70687 -2.19456
      CHANNELS 3 Zrotation Xrotation Yrotation
      JOINT rShin
      {
        OFFSET 0 -36.8199 0.73152
        CHANNELS 3 Zrotation Xrotation Yrotation
        JOINT rFoot
        {
          OFFSET 0.73152 -45.1104 -5.12064
          CHANNELS 3 Zrotation Xrotation Yrotation
          End Site
          {
            OFFSET -1.1221 -3.69964 12.103
          }
        }
      }
    }
  }
  JOINT lButtock
  {
    OFFSET 8.77824 4.35084 1.2192
    CHANNELS 3 Zrotation Xrotation Yrotation
    JOINT lThigh
    {
      OFFSET 0 -1.70687 -2.19456
      CHANNELS 3 Zrotation Xrotation Yrotation
      JOINT lShin
      {
        OFFSET 0 -36.8199 0.73152
        CHANNELS 3 Zrotation Xrotation Yrotation
        JOINT lFoot
        {
          OFFSET -0.73152 -45.1104 -5.12064
          CHANNELS 3 Zrotation Xrotation Yrotation
          End Site
          {
            OFFSET 1.1221 -3.69964 12.103
          }
        }
      }
    }
  }
}
MOTION
Frames:	7
Frame Time:	0.03333
10.0132 60.12499999999999 16.406200000000002 -51.266755 -81.887262 49.270963 15.306536 31.212479 -0.0 -14.592842 -27.342517 -14.698189 -12.101434 27.435103 64.57095 -22.568371 -32.878904 -47.672282 1.000349 -0.339938 -37.536787 -178.978125 0.504724 52.570453 -124.967753 25.183374 131.063593 -94.850502 56.16518 85.024918 176.426659 51.95667 -57.219928 1.225918 -16.285913 -2.937475 -14.433846 -18.516481 -19.671865 -134.883175 -64.619096 86.707275 -42.546407 41.699087 35.801173 -57.016658 -84.116267 -112.142692 -52.740515 62.329693 -32.577052 -164.866808 -11.363633 88.784756 -70.008443 66.812798 87.934914 -12.441435 -35.500437 -63.25625 -77.471586 66.390873 112.615134 -178.617939 29.490243 -101.935272 21.41137 62.319411 -11.34741 77.219613 11.895495 -67.57308 77.872646 18.522137 95.002936 -154.821959 -65.269249 -133.912789 18.975862 64.920446 0.632519 68.652566 -15.58889 152.60125 157.25181 14.289984 -116.845818 -11.934296 -21.301744 -20.794697 -2.154429 3.274664 -0.847995 24.94985 -1.301943 5.572138 -166.971101 3.402518 104.294381 -109.420118 -18.022543 132.179908 -75.990852 -86.560018 -48.157731 -12.593559 -54.272574 -62.147997 -38.10114 32.926799 -11.893693 21.583552 -71.236783 137.833481 76.777298 -70.369088 4.454065 -153.937965 -12.857311 133.525563 3.743327 -13.438725 -14.393256 44.881737 -30.449742 125.481357 89.206509 5.305151 144.698752 -85.254332 70.073643 174.142213
9.8247 59.925 16.051299999999998 -40.060736 -79.450352 37.496298 14.409824 31.134937 -0.0 -12.659688 -26.963725 -14.372855 -14.928471 28.10352 61.030252 -19.577885 -36.831791 -43.582084 -4.188659 1.690507 -43.942332 179.014979 -0.564702 59.649516 -21.459637 34.884419 38.934723 -132.799346 9.217653 150.943103 172.456893 22.032208 -59.594035 -0.845097 -8.324932 -3.409088 84.165136 -67.71124 54.913206 -118.400022 -1.836493 139.385061 -32.797267 36.090453 26.479506 -31.076157 77.219808 9.921573 -55.303137 69.438547 -24.997863 -159.339408 -0.906196 90.584994 0.874951 -15.061924 1.669654 -118.350034 -81.734752 -102.333613 -30.324023 -69.530503 -18.056926 1.448666 -4.951534 36.379017 23.815295 -58.856623 33.866183 -72.239958 7.286966 10.147208 -170.453617 -23.89017 -45.201388 167.704941 22.18219 -139.075205 16.045348 63.440098 6.736353 -35.567266 72.054872 44.524782 9.98867 -28.621921 17.438933 136.87039 1.766438 -135.311922 27.65828 54.271024 -27.013287 31.94448 -59.748064 45.73662 -98.490163 36.625432 111.21798 -76.053653 -42.738054 -143.105677 31.958233 48.879099 -108.729477 -16.20739 -2.336102 70.860834 1.683899 27.712179 -3.617281 -66.725127 -57.037984 -70.155086 28.672129 75.998198 13.88951 74.866578 -74.065639 -12.631887 5.983204 -9.79687 -6.607864 42.442123 -38.530452 148.583472 87.73321 -34.271769 -0.344292 -37.932098 56.98122 -62.770049
9.706 60.5796 15.4639 -46.009801 -80.093079 44.045795 16.367939 31.847181 0.0 -16.525601 -26.647357 -12.743813 -25.84598 39.166802 -103.562653 41.150092 44.408245 111.212132 -1.597159 0.555011 -38.322547 -176.196016 3.074267 77.881089 -167.891148 -51.444221 147.692561 88.610509 81.307673 -95.249419 -7.33468 23.142244 119.793905 10.6985 -48.973437 3.831321 118.381067 -62.369213 76.403918 -100.539884 64.487726 68.351617 -43.34343 49.202786 44.328982 -14.931862 -63.877591 -72.615622 -53.742784 65.355805 -8.688768 17.234505 -8.805506 28.315459 -143.112375 -12.380699 -173.305591 42.210255 33.869744 15.734351 -74.744701 79.379399 103.45758 -80.991136 -23.226085 -39.263277 16.793461 36.097773 -3.312796 120.996787 4.660046 -104.138261 154.057035 22.603105 97.598027 0.509107 -32.193953 3.023899 18.240509 66.239311 8.288759 130.546025 -20.43825 -78.820304 31.073829 54.35735 -5.303602 2.236565 0.8117 -12.307507 -11.098192 -24.275979 7.590495 71.053715 43.491036 -41.803903 137.677606 -9.523059 88.44598 160.937983 21.438926 80.68933 123.475525 -15.55643 179.262061 -61.013788 -48.74512 -30.149559 82.533575 33.669684 16.931958 -137.944224 -6.777185 103.485033 99.430785 -68.09151 132.097618 25.642703 6.128574 135.527615 10.978599 -7.248784 -12.918754 42.707501 -36.328327 57.306774 54.431836 72.818149 -85.352663 -70.279301 -48.011892 11.779031
9.6995 60.7732 14.843799999999998 -52.291916 -80.016222 50.572587 17.900343 28.787713 161.07508 8.984979 28.889346 -171.764478 -21.610381 42.583943 -120.769735 31.979156 52.044735 126.832676 1.769644 -0.423448 -26.911934 -174.849869 4.539351 82.77768 9.527256 1.373715 15.679019 -137.885891 -5.206552 166.803409 -14.107241 -6.144368 -151.926687 -166.140726 22.740739 141.802316 -165.224205 21.352986 100.036095 -110.289087 7.583343 9.956089 -145.472815 -60.948222 137.018474 -5.125641 13.616036 40.650548 -145.825605 54.685246 93.639635 -154.667779 -25.216584 119.807596 0.132473 0.779273 -4.687791 168.188 35.774698 159.833749 -9.404508 36.834285 15.731211 172.861826 14.332694 170.403459 12.05546 11.946315 3.204204 -3.398148 26.238846 -75.357286 -170.858782 71.460132 -66.778543 170.280564 12.030439 -142.759365 154.347256 24.43411 -124.112817 -77.777599 -57.703194 -65.401188 107.748262 76.797244 -99.516676 9.60861 -46.320661 24.036137 7.717522 39.916222 -1.147346 23.153112 -27.263131 14.983945 88.974528 0.967705 65.109386 46.422554 -20.012354 158.065327 -7.331695 -1.635588 -37.895713 100.870711 -36.31199 61.985612 -0.360752 21.687906 0.564319 -60.153643 -56.449221 -180.0 -88.522701 -28.087449 0.318473 153.774603 19.9564 -56.65677 13.230873 -6.363229 -15.984738 45.035348 -37.362557 -62.650549 -85.130003 -26.356703 7.99606 158.557103 -28.432333 -101.402993
9.6958 60.3342 14.456199999999999 -51.367717 -78.966459 48.866219 19.740156 34.957573 -0.0 -20.937885 -30.514749 -17.370022 -28.22178 41.111365 -107.73107 38.207233 50.606146 114.433545 -1.831689 0.40754 -25.085314 -179.746205 0.195111 75.10418 -155.999672 -28.249091 146.930841 -120.362599 89.109433 108.068881 33.215959 60.548951 91.773501 0.546012 -31.638695 -1.259182 -6.082561 -14.022319 -15.612056 -86.835426 -58.075359 143.746405 -132.575127 -5.282784 126.416241 -0.179312 46.676386 28.289239 -7.235194 -50.231535 29.284369 90.259609 68.649713 -114.18582 -144.100986 -23.141065 -167.053186 -111.42962 -27.771682 -176.582676 -163.596559 7.096139 -148.093127 -137.181222 26.624426 -78.177735 7.884435 1.622998 6.933506 119.628576 -11.950106 -129.490083 0.724253 -8.615455 122.93518 174.731865 5.411055 -144.36127 165.616636 -58.274036 -130.974696 -0.323769 -73.888534 -0.201621 142.533718 24.364806 -150.485602 -12.69718 -0.263739 40.664109 13.700243 62.838022 -5.971517 150.326316 85.388356 -112.420333 90.370754 -5.247018 61.985085 -109.995473 20.32576 28.944187 148.751399 1.340451 174.938588 -29.006619 20.659957 -18.142809 -67.068246 28.963939 -15.544083 64.586417 -48.783675 -21.332497 -93.408136 64.322933 -52.499003 -168.005143 38.397226 -117.004882 -35.19358 33.93922 -57.063575 112.396519 7.337149 -0.0 -84.621292 25.185391 -17.227317 138.737983 -35.139905 -132.449155
9.5848 59.9256 14.350999999999999 -47.715432 -77.845525 43.68551 16.404939 32.812467 109.426874 -23.594707 22.841736 -115.767095 -16.953435 43.733636 164.205369 -49.01591 31.34325 -123.957523 -8.568584 2.406124 -31.319058 171.94446 -5.562621 69.206522 41.391311 -56.110048 21.217352 -125.263757 -55.182092 -148.504915 158.145813 -6.271201 -61.090366 -0.002132 -24.768887 -0.867568 1.406842 -22.191441 -13.666556 -98.218391 -37.015653 142.702258 -145.344242 -11.685074 128.658814 -141.124489 -20.811196 107.275805 146.43852 6.767969 115.11707 29.072677 -38.867737 64.117141 -77.815055 76.757154 88.742815 161.086364 34.293652 -161.718555 -39.055683 -43.71417 -7.719246 -82.954266 31.323784 155.292271 47.857806 73.12332 -45.630284 -89.707757 -41.26572 -115.264259 177.665765 13.475667 -56.024635 173.007609 15.242895 -142.973372 -7.119212 6.2962 37.647961 128.818015 -59.923485 -163.605858 103.882724 79.268193 -89.55935 7.053611 -5.040022 13.682385 156.654447 -2.268967 -165.503889 -40.251777 61.959197 18.484783 -160.629068 -0.019527 129.08732 -9.065912 66.086942 81.381298 0.115158 -43.827598 -34.906647 -177.220904 33.884746 144.917908 59.124567 38.0919 16.863121 -117.185791 -9.607547 -64.897429 73.23493 70.539245 26.655234 94.531992 76.583776 -179.395997 121.847048 58.328784 62.136524 -129.735101 16.923878 103.602846 76.231306 -15.965404 -128.283961 77.948628 24.341403 -10.728643
9.3223 59.9235 14.427499999999998 -45.511879 -77.304511 39.701809 18.244899 36.426477 -10.453838 -12.07314 -32.75733 -4.611038 -12.971693 38.217062 124.072516 -49.868189 -1.145838 -100.029341 -15.072869 5.440717 -39.511171 166.914914 -9.386524 71.192173 -81.764129 51.208971 90.92026 -165.949722 -6.031306 141.271361 170.321454 -45.162152 17.840966 -83.224908 68.890696 66.920313 -94.661777 52.931043 50.633494 -126.560021 -37.038617 77.29089 -161.686608 -58.074542 144.464556 -77.524295 38.712494 64.145017 -134.276543 27.862099 59.008534 138.122605 -47.341086 48.664743 -13.122531 -0.031134 -6.555647 39.890438 -55.416747 38.946177 -36.750449 36.116158 33.398252 -85.107093 44.13642 101.511906 77.799051 -80.381383 97.923752 5.76526 -59.729309 63.789677 -71.827193 -37.767676 76.384883 138.642855 60.712139 -116.266963 158.091923 12.285125 -127.73266 173.42074 -33.569549 -64.695392 153.581918 36.207156 -144.974488 169.145149 -14.642648 -118.128472 -1.672179 0.641322 27.530434 -167.485727 7.643117 -117.305369 -86.946626 60.850987 117.604532 0.105242 -31.410317 -68.820947 11.302229 -14.905006 -53.402483 176.163038 14.528852 112.764546 -4.401187 29.492801 7.107716 -64.076155 -52.525727 111.095249 -37.626841 -80.496246 78.81968 101.803975 21.689724 -10.987024 56.534043 -0.734133 22.571311 -33.038864 -36.734993 -21.808859 -52.408309 68.279623 127.428311 -82.586746 51.055383 -1.31293
